<svg xmlns="http://www.w3.org/2000/svg" style="display: none;">
  <symbol id="documentation-icon" viewBox="0 0 24 24" fill="none" stroke="currentColor" stroke-width="2" stroke-linecap="round" stroke-linejoin="round">
    <path d="M2 3h6a4 4 0 0 1 4 4v14a3 3 0 0 0-3-3H2z"/>
    <path d="M22 3h-6a4 4 0 0 0-4 4v14a3 3 0 0 1 3-3h7z"/>
  </symbol>
  <symbol id="social-icon" viewBox="0 0 24 24" fill="none" stroke="currentColor" stroke-width="2" stroke-linecap="round" stroke-linejoin="round">
    <path d="M21 11.5a8.38 8.38 0 0 1-.9 3.8 8.5 8.5 0 0 1-7.6 4.7 8.38 8.38 0 0 1-3.8-.9L3 21l1.9-5.7a8.38 8.38 0 0 1-.9-3.8 8.5 8.5 0 0 1 4.7-7.6 8.38 8.38 0 0 1 3.8-.9h.5a8.48 8.48 0 0 1 8 8v.5z"/>
  </symbol>
  <symbol id="github-icon" viewBox="0 0 24 24" fill="none" stroke="currentColor" stroke-width="2" stroke-linecap="round" stroke-linejoin="round">
    <path d="M9 19c-5 1.5-5-2.5-7-3m14 6v-3.87a3.37 3.37 0 0 0-.94-2.61c3.14-.35 6.44-1.54 6.44-7A5.44 5.44 0 0 0 20 4.77 5.07 5.07 0 0 0 19.91 1S18.73.65 16 2.48a13.38 13.38 0 0 0-7 0C6.27.65 5.09 1 5.09 1A5.07 5.07 0 0 0 5 4.77a5.44 5.44 0 0 0-1.5 3.78c0 5.42 3.3 6.61 6.44 7A3.37 3.37 0 0 0 9 18.13V22"/>
  </symbol>
  <symbol id="discord-icon" viewBox="0 0 127.14 96.36" fill="currentColor">
    <path d="M107.7,8.07A105.15,105.15,0,0,0,77.26,0a77.19,77.19,0,0,0-3.3,6.83A96.67,96.67,0,0,0,53.22,6.83,77.19,77.19,0,0,0,49.88,0,105.15,105.15,0,0,0,19.44,8.07C3.66,31.58-1.86,54.65,1,77.53A105.73,105.73,0,0,0,32,96.36a77.7,77.7,0,0,0,6.63-10.85,68.43,68.43,0,0,1-10.4-5c.87-.64,1.71-1.32,2.51-2a75.52,75.52,0,0,0,72.63,0c.8.71,1.64,1.39,2.51,2a68.53,68.53,0,0,1-10.4,5,77.7,77.7,0,0,0,6.63,10.85,105.73,105.73,0,0,0,31.06-18.83C129,54.65,123.5,31.58,107.7,8.07ZM42.45,65.69C36.18,65.69,31,60,31,53S36.18,40.36,42.45,40.36,53.88,46,53.88,53,48.72,65.69,42.45,65.69Zm42.24,0C78.41,65.69,73.24,60,73.24,53S78.41,40.36,84.69,40.36,96.12,46,96.12,53,91,65.69,84.69,65.69Z"/>
  </symbol>
  <symbol id="x-icon" viewBox="0 0 24 24" fill="currentColor">
    <path d="M18.244 2.25h3.308l-7.227 8.26 8.502 11.24H16.17l-5.214-6.817L4.99 21.75H1.68l7.73-8.835L1.254 2.25H8.08l4.713 6.231zm-1.161 17.52h1.833L7.084 4.126H5.117z"/>
  </symbol>
  <symbol id="bluesky-icon" viewBox="0 0 512 512" fill="currentColor">
    <path d="M111.8 77.2C167.3 118.8 238.1 198 256 224c17.9-26 88.7-105.2 144.2-146.8c38-28.5 86.8-46.7 122.6-18c35.9 28.7 20 90.7-3.9 144.7C491 263.6 440 338.4 440 371.7c0 73.1 48.7 87.2 9.7 121.7c-38.9 34.5-98.3-9.9-140.9-46.5c-43.2-37.2-51.2-46.2-52.8-46.2s-9.6 9-52.8 46.2C160.6 483.5 101.2 527.9 62.3 493.4c-39-34.5 9.7-48.6 9.7-121.7c0-33.3-51-108.1-78.9-167.1C9.2 149.9-6.7 87.9 29.2 59.2c35.8-28.7 84.6-10.5 122.6 18z"/>
  </symbol>
</svg>
